<svg xmlns="http://www.w3.org/2000/svg" width="780" height="290" viewBox="0 0 780 290" role="img" aria-labelledby="title desc">
  <title id="title">party-cli worker sidebar wide mockup</title>
  <desc id="desc">Wide bordered worker sidebar with flat-list interior matching the tracker flow.</desc>
  <style>
    text { font-family: "JetBrains Mono", "Menlo", monospace; font-size: 14px; }
    .border { fill: #6688cc; }
    .border-active { fill: #6688cc; }
    .title { fill: #6688cc; font-weight: bold; }
    .muted { fill: #686868; }
    .label { fill: #d0d0d0; }
    .accent { fill: #6688cc; }
    .green { fill: #5faf5f; }
    .yellow { fill: #d7af5f; }
    .dim { fill: #585858; }
  </style>
  <rect width="780" height="290" rx="6" fill="#1a1a2e"/>
  <!-- top border -->
  <text x="20" y="30" class="border-active">╭─ Worker: party-worker-17 ────────────────────────────────────────────────╮</text>
  <!-- body lines -->
  <text x="20" y="54" class="border-active">│</text><text x="38" y="54" class="muted">tui style match</text><text x="756" y="54" class="border-active">│</text>
  <text x="20" y="78" class="border-active">│</text><text x="38" y="78" class="muted">~/Code/ai-config</text><text x="756" y="78" class="border-active">│</text>
  <text x="20" y="102" class="border-active">│</text><text x="756" y="102" class="border-active">│</text>
  <text x="20" y="126" class="border-active">│</text><text x="38" y="126" class="label">Codex</text><text x="88" y="126" class="accent"> ⠋ working</text><text x="756" y="126" class="border-active">│</text>
  <text x="20" y="150" class="border-active">│</text><text x="54" y="150" class="muted">review · DESIGN.md · 00:02:14</text><text x="756" y="150" class="border-active">│</text>
  <text x="20" y="174" class="border-active">│</text><text x="756" y="174" class="border-active">│</text>
  <text x="20" y="198" class="border-active">│</text><text x="38" y="198" class="label">Evidence</text><text x="756" y="198" class="border-active">│</text>
  <text x="20" y="222" class="border-active">│</text><text x="54" y="222" class="muted">review</text><text x="114" y="222" class="yellow">REQUEST_CHANGES</text><text x="756" y="222" class="border-active">│</text>
  <text x="20" y="246" class="border-active">│</text><text x="54" y="246" class="muted">tests</text><text x="114" y="246" class="green">APPROVED</text><text x="756" y="246" class="border-active">│</text>
  <!-- bottom border -->
  <text x="20" y="270" class="border-active">╰─ 2 evidence · q quit · p peek codex ─────────────────────────────────────╯</text>
</svg>
