<svg xmlns="http://www.w3.org/2000/svg" viewBox="0 0 900 700" font-family="JetBrains Mono, monospace" font-size="11">
  <rect width="900" height="700" fill="#1a1a2e" rx="8"/>
  <text x="450" y="28" fill="#e0e0e0" font-size="16" font-weight="bold" text-anchor="middle">Before / After: Bash-Heavy → Unified Go TUI+CLI</text>

  <!-- BEFORE -->
  <rect x="20" y="45" width="420" height="620" fill="#1e1e30" stroke="#f44336" stroke-width="2" rx="6"/>
  <text x="230" y="70" fill="#ef9a9a" font-size="14" font-weight="bold" text-anchor="middle">BEFORE (Current)</text>
  <text x="230" y="88" fill="#78909c" font-size="10" text-anchor="middle">2,480 lines: 1,722 bash + 660 Go + 98 tmux</text>

  <!-- Bash scripts -->
  <rect x="35" y="100" width="190" height="200" fill="#3c1111" stroke="#f44336" stroke-width="1" rx="4"/>
  <text x="130" y="118" fill="#ef9a9a" font-weight="bold" text-anchor="middle">Bash Scripts (1,722L)</text>
  <text x="45" y="138" fill="#ef9a9a" font-size="10">party.sh        482L</text>
  <text x="45" y="153" fill="#ef9a9a" font-size="10">party-lib.sh    503L</text>
  <text x="45" y="168" fill="#ef9a9a" font-size="10">party-relay.sh  252L</text>
  <text x="45" y="183" fill="#ef9a9a" font-size="10">party-master.sh 186L</text>
  <text x="45" y="198" fill="#ef9a9a" font-size="10">party-picker.sh 197L</text>
  <text x="45" y="213" fill="#ef9a9a" font-size="10">party-preview.sh 65L</text>
  <text x="45" y="228" fill="#ef9a9a" font-size="10">party-master-j.. 37L</text>
  <line x1="40" y1="240" x2="220" y2="240" stroke="#f44336" stroke-width="0.5"/>
  <text x="45" y="258" fill="#ff8a80" font-size="9">⚠ mkdir locking</text>
  <text x="45" y="273" fill="#ff8a80" font-size="9">⚠ silent jq failures</text>
  <text x="45" y="288" fill="#ff8a80" font-size="9">⚠ fire-and-forget msgs</text>

  <!-- Go tracker (isolated) -->
  <rect x="240" y="100" width="185" height="105" fill="#1b4332" stroke="#4caf50" stroke-width="1" rx="4"/>
  <text x="332" y="118" fill="#81c784" font-weight="bold" text-anchor="middle">Go Tracker (660L)</text>
  <text x="250" y="138" fill="#a5d6a7" font-size="10">main.go     436L</text>
  <text x="250" y="153" fill="#a5d6a7" font-size="10">workers.go  154L</text>
  <text x="250" y="168" fill="#a5d6a7" font-size="10">actions.go   70L</text>
  <line x1="245" y1="178" x2="420" y2="178" stroke="#4caf50" stroke-width="0.5"/>
  <text x="250" y="195" fill="#a5d6a7" font-size="9">Shells out to bash ↑</text>

  <!-- Problem callouts -->
  <rect x="240" y="220" width="185" height="80" fill="#3e2723" stroke="#ff9800" stroke-width="1" rx="4"/>
  <text x="332" y="238" fill="#ffcc80" font-weight="bold" text-anchor="middle">Pain Points</text>
  <text x="250" y="258" fill="#ffe0b2" font-size="10">• Duplicated launch ×2</text>
  <text x="250" y="273" fill="#ffe0b2" font-size="10">• 0% Go test coverage</text>
  <text x="250" y="288" fill="#ffe0b2" font-size="10">• Race conditions</text>

  <!-- Hooks -->
  <rect x="35" y="315" width="190" height="120" fill="#263238" stroke="#78909c" stroke-width="1" rx="4"/>
  <text x="130" y="333" fill="#b0bec5" font-weight="bold" text-anchor="middle">Hooks (1,264L)</text>
  <text x="45" y="353" fill="#90a4ae" font-size="10">13 hook scripts</text>
  <text x="45" y="368" fill="#90a4ae" font-size="10">evidence.sh    353L</text>
  <text x="45" y="383" fill="#90a4ae" font-size="10">agent-trace    188L</text>
  <text x="45" y="398" fill="#ff8a80" font-size="9">⚠ oscillation inline</text>
  <text x="45" y="413" fill="#ff8a80" font-size="9">⚠ no worktree tests</text>
  <text x="45" y="428" fill="#ff8a80" font-size="9">⚠ dead transition code</text>

  <!-- Separate concerns -->
  <rect x="240" y="315" width="185" height="120" fill="#1a1a4e" stroke="#7c4dff" stroke-width="1" rx="4"/>
  <text x="332" y="333" fill="#ce93d8" font-weight="bold" text-anchor="middle">3 Separate Tracks</text>
  <text x="250" y="358" fill="#b39ddb" font-size="10">1. sidebar-tui plan</text>
  <text x="260" y="373" fill="#78909c" font-size="9">(6 tasks, companion</text>
  <text x="260" y="386" fill="#78909c" font-size="9"> sessions, complex)</text>
  <text x="250" y="406" fill="#b39ddb" font-size="10">2. Go CLI (separate)</text>
  <text x="250" y="421" fill="#b39ddb" font-size="10">3. Tracker (isolated)</text>

  <!-- Sidebar plan concern -->
  <rect x="35" y="450" width="390" height="50" fill="#311b92" stroke="#7c4dff" stroke-width="1" rx="4" stroke-dasharray="4,2"/>
  <text x="230" y="472" fill="#ce93d8" text-anchor="middle" font-size="10">Codex visible in own pane — wastes 30% screen width</text>
  <text x="230" y="487" fill="#78909c" text-anchor="middle" font-size="9">No status indicators, no peek, no evidence visibility</text>

  <!-- Totals -->
  <rect x="35" y="515" width="390" height="55" fill="#1e1e30" stroke="#78909c" stroke-width="1" rx="4"/>
  <text x="230" y="535" fill="#e0e0e0" font-weight="bold" text-anchor="middle">System Totals</text>
  <text x="45" y="555" fill="#78909c" font-size="10">7 bash scripts + 1 Go binary + 13 hooks + 3 divergent plans</text>
  <text x="45" y="568" fill="#ff8a80" font-size="9">Entry points: party.sh, party-relay.sh, party-picker.sh, party-tracker</text>

  <!-- Arrow -->
  <text x="450" y="360" fill="#4a9eff" font-size="28" font-weight="bold" text-anchor="middle">→</text>

  <!-- AFTER -->
  <rect x="460" y="45" width="420" height="620" fill="#1e2e1e" stroke="#4caf50" stroke-width="2" rx="6"/>
  <text x="670" y="70" fill="#81c784" font-size="14" font-weight="bold" text-anchor="middle">AFTER (Harness V2)</text>
  <text x="670" y="88" fill="#78909c" font-size="10" text-anchor="middle">Single binary, dual mode, converged tracks</text>

  <!-- party-cli binary -->
  <rect x="475" y="100" width="390" height="200" fill="#1b4332" stroke="#4caf50" stroke-width="2" rx="4"/>
  <text x="670" y="118" fill="#81c784" font-weight="bold" text-anchor="middle">party-cli (unified Go binary)</text>

  <rect x="485" y="128" width="115" height="60" fill="#0f3460" stroke="#4a9eff" stroke-width="1" rx="3"/>
  <text x="542" y="145" fill="#4a9eff" font-weight="bold" text-anchor="middle" font-size="10">cmd/ (Cobra)</text>
  <text x="492" y="160" fill="#a0d0ff" font-size="9">root → TUI</text>
  <text x="492" y="173" fill="#a0d0ff" font-size="9">list,start..</text>
  <text x="492" y="186" fill="#a0d0ff" font-size="9">relay,stop..</text>

  <rect x="610" y="128" width="115" height="60" fill="#1a1a4e" stroke="#7c4dff" stroke-width="1" rx="3"/>
  <text x="667" y="145" fill="#ce93d8" font-weight="bold" text-anchor="middle" font-size="10">tui/ (Tea)</text>
  <text x="617" y="160" fill="#b39ddb" font-size="9">sidebar view</text>
  <text x="617" y="173" fill="#b39ddb" font-size="9">tracker view</text>
  <text x="617" y="186" fill="#b39ddb" font-size="9">shared style</text>

  <rect x="735" y="128" width="120" height="60" fill="#1b4332" stroke="#4caf50" stroke-width="1" rx="3"/>
  <text x="795" y="145" fill="#81c784" font-weight="bold" text-anchor="middle" font-size="10">internal/</text>
  <text x="742" y="160" fill="#a5d6a7" font-size="9">state/ (flock)</text>
  <text x="742" y="173" fill="#a5d6a7" font-size="9">tmux/ (typed)</text>
  <text x="742" y="186" fill="#a5d6a7" font-size="9">app/ (logic)</text>

  <text x="670" y="215" fill="#4caf50" text-anchor="middle" font-size="9">✓ flock locking  ✓ explicit errors  ✓ table-driven tests</text>
  <text x="670" y="230" fill="#4caf50" text-anchor="middle" font-size="9">✓ delivery confirmation  ✓ typed state  ✓ single binary</text>
  <text x="670" y="245" fill="#4caf50" text-anchor="middle" font-size="9">✓ TUI sidebar + tracker in same binary as CLI commands</text>
  <line x1="480" y1="255" x2="860" y2="255" stroke="#4caf50" stroke-width="0.5"/>
  <text x="670" y="273" fill="#a5d6a7" text-anchor="middle" font-size="9">Converges: sidebar-tui + tracker + CLI → one codebase</text>
  <text x="670" y="288" fill="#a5d6a7" text-anchor="middle" font-size="9">Same packages serve both TUI rendering and CLI output</text>

  <!-- Retained bash (thin) -->
  <rect x="475" y="315" width="180" height="75" fill="#3e2723" stroke="#ff9800" stroke-width="1" rx="4"/>
  <text x="565" y="333" fill="#ffcc80" font-weight="bold" text-anchor="middle">Retained Bash</text>
  <text x="485" y="353" fill="#ffe0b2" font-size="10">party.sh (thin shim)</text>
  <text x="485" y="368" fill="#ffe0b2" font-size="10">party-lib.sh (Codex)</text>
  <text x="485" y="383" fill="#78909c" font-size="9">tmux-codex.sh deps only</text>

  <!-- Hooks (improved) -->
  <rect x="670" y="315" width="195" height="75" fill="#263238" stroke="#4caf50" stroke-width="1" rx="4"/>
  <text x="767" y="333" fill="#81c784" font-weight="bold" text-anchor="middle">Hooks (improved)</text>
  <text x="680" y="353" fill="#a5d6a7" font-size="10">✓ oscillation extracted</text>
  <text x="680" y="368" fill="#a5d6a7" font-size="10">✓ worktree tests added</text>
  <text x="680" y="383" fill="#a5d6a7" font-size="10">✓ dead code removed</text>

  <!-- TUI in pane -->
  <rect x="475" y="405" width="390" height="65" fill="#16213e" stroke="#4a9eff" stroke-width="1.5" rx="4"/>
  <text x="670" y="425" fill="#4a9eff" font-weight="bold" text-anchor="middle">TUI Sidebar (pane 0 in tmux)</text>
  <text x="485" y="445" fill="#a0d0ff" font-size="10">Worker: Codex status + session info + evidence + peek popup</text>
  <text x="485" y="460" fill="#a0d0ff" font-size="10">Master: Worker tracker + relay/spawn/attach + manifest inspect</text>

  <!-- Retired -->
  <rect x="475" y="485" width="390" height="45" fill="#3c1111" stroke="#f44336" stroke-width="1" rx="4" stroke-dasharray="4,2"/>
  <text x="670" y="505" fill="#ef9a9a" font-weight="bold" text-anchor="middle">Retired</text>
  <text x="485" y="522" fill="#ef9a9a" font-size="10">party-master.sh, party-picker.sh, party-preview.sh, party-tracker binary</text>

  <!-- Totals -->
  <rect x="475" y="545" width="390" height="55" fill="#1e2e1e" stroke="#4caf50" stroke-width="1" rx="4"/>
  <text x="670" y="565" fill="#e0e0e0" font-weight="bold" text-anchor="middle">System Totals</text>
  <text x="485" y="582" fill="#a5d6a7" font-size="10">1 Go binary (TUI+CLI) + 2 thin bash shims + 13 hooks (cleaned)</text>
  <text x="485" y="598" fill="#4caf50" font-size="9">Entry point: party-cli (TUI default, CLI with subcommand)</text>

  <!-- Delta callout -->
  <rect x="475" y="610" width="390" height="45" fill="#004d40" stroke="#4caf50" stroke-width="1" rx="4"/>
  <text x="670" y="630" fill="#80cbc4" font-weight="bold" text-anchor="middle">Delta</text>
  <text x="485" y="647" fill="#a5d6a7" font-size="10">-5 bash scripts  -1 standalone binary  +1 unified binary  3 plans → 1</text>
</svg>
