<svg xmlns="http://www.w3.org/2000/svg" viewBox="0 0 900 580" font-family="JetBrains Mono, monospace" font-size="11">
  <defs>
    <marker id="a" markerWidth="8" markerHeight="6" refX="8" refY="3" orient="auto">
      <path d="M0,0 L8,3 L0,6" fill="#4a9eff"/>
    </marker>
    <marker id="b" markerWidth="8" markerHeight="6" refX="8" refY="3" orient="auto">
      <path d="M0,0 L8,3 L0,6" fill="#4caf50"/>
    </marker>
    <marker id="c" markerWidth="8" markerHeight="6" refX="8" refY="3" orient="auto">
      <path d="M0,0 L8,3 L0,6" fill="#ff9800"/>
    </marker>
    <marker id="d" markerWidth="8" markerHeight="6" refX="8" refY="3" orient="auto">
      <path d="M0,0 L8,3 L0,6" fill="#ce93d8"/>
    </marker>
  </defs>

  <rect width="900" height="580" fill="#1a1a2e" rx="8"/>
  <text x="450" y="28" fill="#e0e0e0" font-size="16" font-weight="bold" text-anchor="middle">Data Flow: party-cli + tmux + Evidence + Codex</text>

  <!-- User -->
  <rect x="380" y="45" width="140" height="35" fill="#1565c0" stroke="#4a9eff" stroke-width="2" rx="16"/>
  <text x="450" y="67" fill="#fff" font-weight="bold" text-anchor="middle">User / Operator</text>

  <!-- party-cli -->
  <rect x="310" y="110" width="280" height="50" fill="#16213e" stroke="#4a9eff" stroke-width="2" rx="6"/>
  <text x="450" y="132" fill="#4a9eff" font-weight="bold" text-anchor="middle">party-cli (TUI or CLI mode)</text>
  <text x="450" y="148" fill="#78909c" font-size="9" text-anchor="middle">Cobra routes → shared app layer → TUI renders</text>

  <!-- Arrow: User → party-cli -->
  <line x1="450" y1="80" x2="450" y2="108" stroke="#4a9eff" stroke-width="1.5" marker-end="url(#a)"/>

  <!-- State Store -->
  <rect x="50" y="200" width="180" height="70" fill="#1b4332" stroke="#4caf50" stroke-width="1.5" rx="4"/>
  <text x="140" y="222" fill="#81c784" font-weight="bold" text-anchor="middle">Manifest Store</text>
  <text x="60" y="240" fill="#a5d6a7" font-size="10">~/.party-state/*.json</text>
  <text x="60" y="255" fill="#a5d6a7" font-size="10">flock atomic writes</text>

  <!-- tmux -->
  <rect x="280" y="200" width="180" height="70" fill="#263238" stroke="#78909c" stroke-width="1.5" rx="4"/>
  <text x="370" y="222" fill="#b0bec5" font-weight="bold" text-anchor="middle">tmux Runtime</text>
  <text x="290" y="240" fill="#90a4ae" font-size="10">sessions, panes, roles</text>
  <text x="290" y="255" fill="#90a4ae" font-size="10">send-keys, capture-pane</text>

  <!-- Codex Transport -->
  <rect x="510" y="200" width="180" height="70" fill="#1a1a4e" stroke="#ce93d8" stroke-width="1.5" rx="4"/>
  <text x="600" y="222" fill="#ce93d8" font-weight="bold" text-anchor="middle">Codex Transport</text>
  <text x="520" y="240" fill="#b39ddb" font-size="10">tmux-codex.sh (bash)</text>
  <text x="520" y="255" fill="#b39ddb" font-size="10">party-lib.sh routing</text>

  <!-- Evidence -->
  <rect x="720" y="200" width="160" height="70" fill="#3e2723" stroke="#ff9800" stroke-width="1.5" rx="4"/>
  <text x="800" y="222" fill="#ffcc80" font-weight="bold" text-anchor="middle">Evidence Layer</text>
  <text x="730" y="240" fill="#ffe0b2" font-size="10">JSONL + diff_hash</text>
  <text x="730" y="255" fill="#ffe0b2" font-size="10">pr-gate.sh enforces</text>

  <!-- Arrows: party-cli → stores -->
  <line x1="380" y1="160" x2="160" y2="198" stroke="#4caf50" stroke-width="1.5" marker-end="url(#b)"/>
  <line x1="430" y1="160" x2="370" y2="198" stroke="#78909c" stroke-width="1.5" marker-end="url(#a)"/>
  <line x1="520" y1="160" x2="580" y2="198" stroke="#ce93d8" stroke-width="1.5" marker-end="url(#d)"/>

  <!-- Claude Agent -->
  <rect x="200" y="320" width="200" height="50" fill="#0f3460" stroke="#4a9eff" stroke-width="1.5" rx="4"/>
  <text x="300" y="342" fill="#4a9eff" font-weight="bold" text-anchor="middle">Claude Agent (tmux pane)</text>
  <text x="300" y="358" fill="#78909c" font-size="9" text-anchor="middle">hooks fire on tool use</text>

  <!-- Codex Agent -->
  <rect x="500" y="320" width="200" height="50" fill="#1a1a4e" stroke="#ce93d8" stroke-width="1.5" rx="4"/>
  <text x="600" y="342" fill="#ce93d8" font-weight="bold" text-anchor="middle">Codex Agent (detached)</text>
  <text x="600" y="358" fill="#78909c" font-size="9" text-anchor="middle">hidden companion session</text>

  <!-- Arrows: tmux ↔ agents -->
  <line x1="330" y1="270" x2="300" y2="318" stroke="#78909c" stroke-width="1.5" marker-end="url(#a)"/>
  <line x1="420" y1="270" x2="560" y2="318" stroke="#78909c" stroke-width="1" stroke-dasharray="4,2" marker-end="url(#a)"/>

  <!-- Arrow: Codex transport → Codex -->
  <line x1="600" y1="270" x2="600" y2="318" stroke="#ce93d8" stroke-width="1.5" marker-end="url(#d)"/>

  <!-- Hooks -->
  <rect x="620" y="400" width="260" height="90" fill="#3e2723" stroke="#ff9800" stroke-width="1.5" rx="4"/>
  <text x="750" y="420" fill="#ffcc80" font-weight="bold" text-anchor="middle">Hook System</text>
  <text x="630" y="438" fill="#ffe0b2" font-size="10">agent-trace → evidence JSONL</text>
  <text x="630" y="453" fill="#ffe0b2" font-size="10">codex-gate → block self-approve</text>
  <text x="630" y="468" fill="#ffe0b2" font-size="10">pr-gate → enforce at PR create</text>
  <text x="630" y="483" fill="#ffe0b2" font-size="10">worktree-guard → branch safety</text>

  <!-- Arrow: Claude → Hooks -->
  <line x1="380" y1="370" x2="640" y2="398" stroke="#ff9800" stroke-width="1.5" marker-end="url(#c)"/>

  <!-- Arrow: Hooks → Evidence -->
  <line x1="800" y1="270" x2="780" y2="398" stroke="#ff9800" stroke-width="1" stroke-dasharray="3,3" marker-end="url(#c)"/>

  <!-- TUI reads state -->
  <text x="100" y="175" fill="#4caf50" font-size="9" text-anchor="middle">read/write</text>
  <text x="340" y="185" fill="#78909c" font-size="9" text-anchor="middle">query/mutate</text>
  <text x="555" y="175" fill="#ce93d8" font-size="9" text-anchor="middle">dispatch</text>

  <!-- TUI sidebar reads -->
  <rect x="50" y="400" width="200" height="70" fill="#16213e" stroke="#7c4dff" stroke-width="1.5" rx="4"/>
  <text x="150" y="420" fill="#ce93d8" font-weight="bold" text-anchor="middle">TUI Sidebar View</text>
  <text x="60" y="438" fill="#b39ddb" font-size="10">Polls: manifest + tmux</text>
  <text x="60" y="453" fill="#b39ddb" font-size="10">Renders: Codex status,</text>
  <text x="60" y="468" fill="#b39ddb" font-size="10">session info, workers</text>

  <!-- Arrow: State → TUI -->
  <line x1="140" y1="270" x2="140" y2="398" stroke="#4caf50" stroke-width="1" stroke-dasharray="3,3" marker-end="url(#b)"/>

  <!-- Legend -->
  <rect x="30" y="510" width="840" height="55" fill="#12121f" stroke="#444" stroke-width="1" rx="4"/>
  <line x1="50" y1="535" x2="80" y2="535" stroke="#4a9eff" stroke-width="2"/>
  <text x="88" y="539" fill="#a0d0ff" font-size="10">CLI/TUI flow</text>
  <line x1="200" y1="535" x2="230" y2="535" stroke="#4caf50" stroke-width="2"/>
  <text x="238" y="539" fill="#a5d6a7" font-size="10">State I/O</text>
  <line x1="330" y1="535" x2="360" y2="535" stroke="#ce93d8" stroke-width="2"/>
  <text x="368" y="539" fill="#b39ddb" font-size="10">Codex transport</text>
  <line x1="500" y1="535" x2="530" y2="535" stroke="#ff9800" stroke-width="2"/>
  <text x="538" y="539" fill="#ffe0b2" font-size="10">Evidence/hooks</text>
  <line x1="670" y1="535" x2="700" y2="535" stroke="#78909c" stroke-width="2" stroke-dasharray="4,2"/>
  <text x="708" y="539" fill="#90a4ae" font-size="10">Async/polling</text>
</svg>
