<svg xmlns="http://www.w3.org/2000/svg" viewBox="0 0 900 620" font-family="JetBrains Mono, monospace" font-size="12">
  <defs>
    <marker id="arrow" markerWidth="8" markerHeight="6" refX="8" refY="3" orient="auto">
      <path d="M0,0 L8,3 L0,6" fill="#666"/>
    </marker>
    <marker id="arrow-blue" markerWidth="8" markerHeight="6" refX="8" refY="3" orient="auto">
      <path d="M0,0 L8,3 L0,6" fill="#4a9eff"/>
    </marker>
  </defs>

  <!-- Background -->
  <rect width="900" height="620" fill="#1a1a2e" rx="8"/>

  <!-- Title -->
  <text x="450" y="30" fill="#e0e0e0" font-size="16" font-weight="bold" text-anchor="middle">End-State Architecture: Unified party-cli Binary</text>

  <!-- party-cli binary box -->
  <rect x="30" y="50" width="840" height="340" fill="#16213e" stroke="#4a9eff" stroke-width="2" rx="6"/>
  <text x="50" y="72" fill="#4a9eff" font-weight="bold" font-size="14">party-cli (single Go binary)</text>

  <!-- Entry points -->
  <rect x="50" y="85" width="180" height="90" fill="#0f3460" stroke="#4a9eff" stroke-width="1" rx="4"/>
  <text x="140" y="105" fill="#e0e0e0" font-weight="bold" text-anchor="middle">Entry Points</text>
  <text x="60" y="125" fill="#a0d0ff" font-size="11">party-cli → TUI mode</text>
  <text x="60" y="142" fill="#a0d0ff" font-size="11">party-cli list → CLI</text>
  <text x="60" y="159" fill="#a0d0ff" font-size="11">party-cli relay → CLI</text>

  <!-- cmd/ layer -->
  <rect x="250" y="85" width="180" height="90" fill="#0f3460" stroke="#4a9eff" stroke-width="1" rx="4"/>
  <text x="340" y="105" fill="#e0e0e0" font-weight="bold" text-anchor="middle">cmd/ (Cobra)</text>
  <text x="260" y="125" fill="#a0d0ff" font-size="11">root.go → TUI</text>
  <text x="260" y="142" fill="#a0d0ff" font-size="11">list.go, start.go</text>
  <text x="260" y="159" fill="#a0d0ff" font-size="11">relay.go, stop.go</text>

  <!-- TUI layer -->
  <rect x="450" y="85" width="200" height="90" fill="#1a1a4e" stroke="#7c4dff" stroke-width="1" rx="4"/>
  <text x="550" y="105" fill="#ce93d8" font-weight="bold" text-anchor="middle">internal/tui/ (Bubble Tea)</text>
  <text x="460" y="125" fill="#ce93d8" font-size="11">sidebar.go (worker view)</text>
  <text x="460" y="142" fill="#ce93d8" font-size="11">tracker.go (master view)</text>
  <text x="460" y="159" fill="#ce93d8" font-size="11">common.go (shared styles)</text>

  <!-- Arrows entry → cmd -->
  <line x1="230" y1="130" x2="248" y2="130" stroke="#4a9eff" stroke-width="1.5" marker-end="url(#arrow-blue)"/>

  <!-- Arrows cmd → tui -->
  <line x1="430" y1="130" x2="448" y2="130" stroke="#7c4dff" stroke-width="1.5" marker-end="url(#arrow-blue)"/>

  <!-- Shared packages row -->
  <rect x="50" y="195" width="200" height="80" fill="#1b4332" stroke="#4caf50" stroke-width="1" rx="4"/>
  <text x="150" y="215" fill="#81c784" font-weight="bold" text-anchor="middle">internal/state/</text>
  <text x="60" y="235" fill="#a5d6a7" font-size="11">manifest.go (typed CRUD)</text>
  <text x="60" y="252" fill="#a5d6a7" font-size="11">lock.go (flock)</text>
  <text x="60" y="269" fill="#a5d6a7" font-size="11">discovery.go</text>

  <rect x="270" y="195" width="200" height="80" fill="#1b4332" stroke="#4caf50" stroke-width="1" rx="4"/>
  <text x="370" y="215" fill="#81c784" font-weight="bold" text-anchor="middle">internal/tmux/</text>
  <text x="280" y="235" fill="#a5d6a7" font-size="11">session.go (queries)</text>
  <text x="280" y="252" fill="#a5d6a7" font-size="11">delivery.go (confirmed)</text>
  <text x="280" y="269" fill="#a5d6a7" font-size="11">pane.go (roles, capture)</text>

  <rect x="490" y="195" width="200" height="80" fill="#1b4332" stroke="#4caf50" stroke-width="1" rx="4"/>
  <text x="590" y="215" fill="#81c784" font-weight="bold" text-anchor="middle">internal/app/</text>
  <text x="500" y="235" fill="#a5d6a7" font-size="11">lifecycle.go (start/stop)</text>
  <text x="500" y="252" fill="#a5d6a7" font-size="11">relay.go (messaging)</text>
  <text x="500" y="269" fill="#a5d6a7" font-size="11">prune.go (cleanup)</text>

  <!-- Retained (bash) -->
  <rect x="50" y="310" width="320" height="65" fill="#3e2723" stroke="#ff9800" stroke-width="1" rx="4"/>
  <text x="210" y="330" fill="#ffcc80" font-weight="bold" text-anchor="middle">Retained Bash (thin shims)</text>
  <text x="60" y="350" fill="#ffe0b2" font-size="11">party.sh → delegates to party-cli</text>
  <text x="60" y="365" fill="#ffe0b2" font-size="11">party-lib.sh → kept for tmux-codex.sh only</text>

  <!-- Retired -->
  <rect x="390" y="310" width="300" height="65" fill="#3c1111" stroke="#f44336" stroke-width="1" rx="4" stroke-dasharray="4,2"/>
  <text x="540" y="330" fill="#ef9a9a" font-weight="bold" text-anchor="middle">Retired</text>
  <text x="400" y="350" fill="#ef9a9a" font-size="11">party-master.sh, party-picker.sh</text>
  <text x="400" y="365" fill="#ef9a9a" font-size="11">party-preview.sh, party-tracker (standalone)</text>

  <!-- External systems -->
  <rect x="30" y="420" width="250" height="80" fill="#263238" stroke="#78909c" stroke-width="1" rx="4"/>
  <text x="155" y="442" fill="#b0bec5" font-weight="bold" text-anchor="middle">tmux (runtime)</text>
  <text x="40" y="462" fill="#90a4ae" font-size="11">Sessions, panes, @party_role</text>
  <text x="40" y="479" fill="#90a4ae" font-size="11">send-keys, capture-pane, popups</text>

  <rect x="310" y="420" width="250" height="80" fill="#263238" stroke="#78909c" stroke-width="1" rx="4"/>
  <text x="435" y="442" fill="#b0bec5" font-weight="bold" text-anchor="middle">Manifest Store</text>
  <text x="320" y="462" fill="#90a4ae" font-size="11">~/.party-state/*.json</text>
  <text x="320" y="479" fill="#90a4ae" font-size="11">flock-based atomic writes</text>

  <rect x="590" y="420" width="270" height="80" fill="#263238" stroke="#78909c" stroke-width="1" rx="4"/>
  <text x="725" y="442" fill="#b0bec5" font-weight="bold" text-anchor="middle">Hook / Evidence Layer</text>
  <text x="600" y="462" fill="#90a4ae" font-size="11">JSONL evidence, pr-gate.sh</text>
  <text x="600" y="479" fill="#90a4ae" font-size="11">agent-trace, codex-gate (unchanged)</text>

  <!-- Connections -->
  <line x1="150" y1="390" x2="150" y2="418" stroke="#78909c" stroke-width="1.5" marker-end="url(#arrow)"/>
  <line x1="370" y1="275" x2="435" y2="418" stroke="#78909c" stroke-width="1" stroke-dasharray="3,3"/>
  <line x1="150" y1="275" x2="435" y2="418" stroke="#78909c" stroke-width="1" stroke-dasharray="3,3"/>

  <!-- Legend -->
  <rect x="30" y="520" width="840" height="85" fill="#12121f" stroke="#444" stroke-width="1" rx="4"/>
  <text x="50" y="542" fill="#e0e0e0" font-weight="bold">Legend</text>
  <rect x="50" y="552" width="14" height="14" fill="#0f3460" stroke="#4a9eff" stroke-width="1"/>
  <text x="72" y="564" fill="#a0d0ff" font-size="11">CLI / Routing layer</text>
  <rect x="220" y="552" width="14" height="14" fill="#1a1a4e" stroke="#7c4dff" stroke-width="1"/>
  <text x="242" y="564" fill="#ce93d8" font-size="11">TUI layer (Bubble Tea)</text>
  <rect x="420" y="552" width="14" height="14" fill="#1b4332" stroke="#4caf50" stroke-width="1"/>
  <text x="442" y="564" fill="#a5d6a7" font-size="11">Shared packages</text>
  <rect x="600" y="552" width="14" height="14" fill="#3e2723" stroke="#ff9800" stroke-width="1"/>
  <text x="622" y="564" fill="#ffe0b2" font-size="11">Retained bash</text>
  <rect x="760" y="552" width="14" height="14" fill="#3c1111" stroke="#f44336" stroke-width="1" stroke-dasharray="4,2"/>
  <text x="782" y="564" fill="#ef9a9a" font-size="11">Retired</text>

  <text x="50" y="590" fill="#78909c" font-size="11">TUI mode: party-cli (no args) → Bubble Tea event loop in tmux pane 0</text>
  <text x="50" y="605" fill="#78909c" font-size="11">CLI mode: party-cli &lt;subcommand&gt; → non-interactive, exits after completion</text>
</svg>
